<svg width="27" height="26" viewBox="0 0 27 26" fill="none" xmlns="http://www.w3.org/2000/svg">
<g clip-path="url(#clip0_588_32645)">
<path d="M14.4007 25.9999H12.5718C12.2685 25.9632 11.9744 25.9264 11.6711 25.8805C9.10693 25.5037 6.83687 24.4743 4.89767 22.7465C2.646 20.743 1.23065 18.2615 0.688413 15.2838C0.605698 14.8243 0.550555 14.3647 0.486221 13.9052C0.486221 13.2986 0.486221 12.6829 0.486221 12.0763C0.522983 11.7822 0.559746 11.4881 0.596508 11.2032C0.964129 8.68499 1.94752 6.42412 3.63857 4.52169C6.85526 0.928189 10.8807 -0.551485 15.6322 0.183757C18.9684 0.698426 21.698 2.38029 23.7658 5.05474C25.9899 7.93137 26.8447 11.2032 26.3667 14.7967C26.0359 17.3333 24.9974 19.5758 23.3155 21.5058C21.3028 23.8126 18.7937 25.2463 15.7793 25.7978C15.3289 25.8805 14.8602 25.9356 14.4099 25.9999H14.4007ZM14.6304 10.7988C14.6213 10.7437 14.6121 10.7253 14.6121 10.7069C14.6121 10.2382 14.6121 9.77867 14.6121 9.30995C14.6121 8.70337 14.8326 8.4828 15.4392 8.4828C15.9355 8.4828 16.4318 8.4828 16.9373 8.4828V5.92784C16.8821 5.92784 16.8362 5.91865 16.7994 5.91865C15.9447 5.91865 15.09 5.90026 14.2352 5.93703C12.9026 5.99217 11.9192 6.80094 11.6159 8.10599C11.5149 8.52875 11.5057 8.97909 11.4873 9.41105C11.4689 9.86138 11.4873 10.3209 11.4873 10.7988H10.0076V13.4641H11.5057V20.9727H14.6213V13.4549H16.7351C16.827 12.5634 16.9189 11.6903 17.0108 10.7988H14.6488H14.6304Z" fill="#00512C"/>
</g>
<defs>
<clipPath id="clip0_588_32645">
<rect width="26" height="26" fill="white" transform="translate(0.486221)"/>
</clipPath>
</defs>
</svg>
