<svg width="27" height="26" viewBox="0 0 27 26" fill="none" xmlns="http://www.w3.org/2000/svg">
<g clip-path="url(#clip0_588_32651)">
<path d="M0.495987 13.9188C0.495987 13.3125 0.495987 12.6969 0.495987 12.0906C0.514361 11.9344 0.541923 11.7782 0.560298 11.6128C0.799167 9.52732 1.45146 7.59799 2.63662 5.86159C5.08044 2.27855 8.47055 0.312474 12.7978 0.0276681C15.361 -0.137703 17.7681 0.468658 20.0098 1.75488C24.6493 4.41 27.2402 9.87643 26.3214 15.1407C25.8161 18.0715 24.4748 20.552 22.2882 22.5732C20.4416 24.2821 18.2642 25.3662 15.7744 25.8072C15.3151 25.8899 14.8557 25.945 14.4055 26.0093H12.5773C12.2833 25.9725 11.9985 25.9358 11.7045 25.899C9.1504 25.5224 6.88115 24.5118 4.94263 22.8029C2.66419 20.7817 1.24016 18.2828 0.698107 15.2877C0.615422 14.8376 0.560298 14.3782 0.495987 13.9188ZM13.496 5.59516C12.4486 5.59516 11.4013 5.5676 10.3539 5.59516C9.39846 5.62272 8.47973 5.8524 7.68963 6.44039C6.5504 7.30399 6.10942 8.51671 6.09104 9.87643C6.05429 11.9528 6.06348 14.0383 6.09104 16.1146C6.10023 17.0884 6.3391 18.0255 6.95465 18.8157C7.81825 19.9365 9.02178 20.3499 10.3723 20.3959C11.7412 20.4418 13.1101 20.4602 14.479 20.4418C15.4804 20.4326 16.5002 20.4326 17.4925 20.2856C19.0819 20.0467 20.1568 19.128 20.6621 17.5846C20.8917 16.8771 20.9285 16.1422 20.9285 15.4072C20.9193 13.386 20.9101 11.3648 20.8458 9.34357C20.8183 8.54428 20.5243 7.79092 20.019 7.14781C19.1645 6.04534 17.9702 5.63191 16.638 5.58597C15.5907 5.54922 14.5433 5.58597 13.496 5.58597V5.59516Z" fill="#00512C"/>
<path d="M13.477 6.84464C14.6438 6.88139 15.8014 6.89976 16.959 6.96407C18.4381 7.05594 19.4671 8.05736 19.5222 9.53651C19.5957 11.3923 19.5957 13.2574 19.5957 15.1132C19.5957 15.7287 19.5681 16.3535 19.4395 16.9506C19.1731 18.1909 18.2636 18.981 16.9865 19.027C15.1031 19.0913 13.2197 19.1005 11.3363 19.1005C10.7392 19.1005 10.1328 19.0729 9.55401 18.9443C8.30454 18.6779 7.52362 17.7683 7.47769 16.5005C7.41338 14.6263 7.40419 12.7521 7.40419 10.8687C7.40419 10.2531 7.44094 9.62838 7.56956 9.03121C7.83599 7.80011 8.73635 7.04676 10.0042 6.96407C11.171 6.89057 12.3378 6.88139 13.4954 6.83545L13.477 6.84464ZM17.3081 13.0185C17.3081 10.8962 15.6268 9.19658 13.5045 9.18739C11.3823 9.18739 9.67345 10.8595 9.66426 12.9817C9.65507 15.1132 11.3455 16.822 13.477 16.8312C15.5992 16.8312 17.2989 15.1407 17.2989 13.0277L17.3081 13.0185ZM17.4734 9.91319C17.9604 9.91319 18.3554 9.50895 18.3554 9.02202C18.3554 8.5351 17.9512 8.13086 17.4734 8.13086C16.9773 8.13086 16.5731 8.5351 16.5731 9.03121C16.5731 9.51813 16.9773 9.91319 17.4643 9.91319H17.4734Z" fill="#00512C"/>
<path d="M11.0058 12.991C11.0058 11.6129 12.1266 10.5104 13.5231 10.5196C14.892 10.5196 15.9853 11.6404 15.9853 13.0185C15.9853 14.3966 14.8644 15.4991 13.4679 15.4899C12.099 15.4899 11.0058 14.3691 11.0058 12.991Z" fill="#00512C"/>
</g>
<defs>
<clipPath id="clip0_588_32651">
<rect width="26.0092" height="26" fill="white" transform="translate(0.495987)"/>
</clipPath>
</defs>
</svg>
