<svg width="27" height="26" viewBox="0 0 27 26" fill="none" xmlns="http://www.w3.org/2000/svg">
<g clip-path="url(#clip0_588_32656)">
<path d="M14.4133 26.0001H12.5851C12.2911 25.9634 12.0063 25.9266 11.7123 25.8899C9.15822 25.5132 6.88896 24.5026 4.95044 22.7937C2.672 20.7817 1.24797 18.2828 0.70592 15.2877C0.623234 14.8376 0.56811 14.3782 0.503799 13.9188C0.503799 13.3125 0.503799 12.6969 0.503799 12.0906C0.522174 11.9344 0.549736 11.7782 0.56811 11.6128C0.80698 9.52732 1.45928 7.59799 2.64444 5.86159C5.08825 2.27855 8.47836 0.312474 12.8056 0.0276681C15.3688 -0.137703 17.7759 0.468658 20.0176 1.75488C24.6572 4.41 27.248 9.87643 26.3292 15.1407C25.8239 18.0715 24.4826 20.552 22.296 22.5732C20.4402 24.2821 18.272 25.3662 15.7822 25.8072C15.3229 25.8899 14.8635 25.945 14.4133 26.0093V26.0001ZM14.6246 19.6425C14.6246 19.5231 14.6246 19.422 14.6246 19.321C14.6246 17.6672 14.6246 16.0227 14.6246 14.369C14.6246 13.8637 14.7257 13.3952 15.0656 13.0001C15.525 12.4764 16.1038 12.2927 16.7745 12.4397C17.39 12.5775 17.7116 13.0093 17.8494 13.5973C17.9137 13.8453 17.9504 14.0934 17.9504 14.3506C17.9596 16.0135 17.9504 17.6856 17.9504 19.3485C17.9504 19.4496 17.9504 19.5415 17.9504 19.6333H21.1017C21.1017 19.5231 21.1017 19.422 21.1017 19.321C21.1017 17.8142 21.1017 16.3075 21.1017 14.8008C21.1017 14.268 21.1017 13.7351 21.0374 13.2022C20.8353 11.5761 19.9257 10.0786 17.8126 9.91318C16.5724 9.81212 15.525 10.1888 14.7808 11.2361C14.7441 11.2913 14.689 11.3464 14.5971 11.4566V10.1521H11.455V19.6333H14.5971L14.6246 19.6425ZM6.57659 10.1521V19.6425H9.69108V10.1521H6.57659ZM6.38366 7.17537C6.38366 8.13085 7.09108 8.81071 8.12005 8.82908C9.15822 8.83827 9.92995 8.14004 9.92995 7.19375C9.92995 6.22908 9.18578 5.54004 8.16599 5.54004C7.12783 5.54004 6.39285 6.21989 6.39285 7.17537H6.38366Z" fill="#00512C"/>
</g>
<defs>
<clipPath id="clip0_588_32656">
<rect width="26.0092" height="26" fill="white" transform="translate(0.503799)"/>
</clipPath>
</defs>
</svg>
