<svg width="18" height="18" viewBox="0 0 18 18" fill="none" xmlns="http://www.w3.org/2000/svg">
<g clip-path="url(#clip0_588_32637)">
<path d="M9 18C13.9706 18 18 13.9706 18 9C18 4.02944 13.9706 0 9 0C4.02944 0 0 4.02944 0 9C0 13.9706 4.02944 18 9 18Z" fill="#3DB549"/>
<path d="M4.51064 5.05262L8.17713 9.21544C8.38729 9.45242 8.68687 9.58656 8.99986 9.58656C9.31285 9.58656 9.6169 9.45242 9.82259 9.21544L13.4265 5.12864C13.4578 5.09287 13.4936 5.07051 13.5293 5.04815C13.3773 4.98108 13.2074 4.94531 13.033 4.94531H4.96671C4.7968 4.94531 4.63584 4.98108 4.48828 5.03921C4.49275 5.04368 4.5017 5.04815 4.50617 5.0571L4.51064 5.05262Z" fill="white"/>
<path d="M14.0847 5.52222C14.0668 5.56246 14.0445 5.60717 14.0132 5.64294L10.4093 9.72974C10.0516 10.1366 9.53735 10.3691 8.99632 10.3691C8.45528 10.3691 7.94108 10.1366 7.58337 9.72974L3.92135 5.5714C3.92135 5.5714 3.90793 5.55352 3.90346 5.54457C3.79168 5.73237 3.72461 5.95147 3.72461 6.18845V11.8223C3.72461 12.5109 4.28353 13.0698 4.97211 13.0698H13.0339C13.7225 13.0698 14.2814 12.5109 14.2814 11.8223V6.18845C14.2814 5.94699 14.2099 5.71896 14.0892 5.52669L14.0847 5.52222Z" fill="white"/>
</g>
<defs>
<clipPath id="clip0_588_32637">
<rect width="18" height="18" fill="white"/>
</clipPath>
</defs>
</svg>
