<svg width="27" height="26" viewBox="0 0 27 26" fill="none" xmlns="http://www.w3.org/2000/svg">
<g clip-path="url(#clip0_588_32648)">
<path d="M14.4064 26H12.632C12.5493 25.9816 12.4665 25.9632 12.3838 25.954C11.9425 25.8896 11.492 25.8621 11.0507 25.7701C7.97997 25.1541 5.40572 23.6648 3.42906 21.2284C1.05706 18.2956 0.12849 14.9307 0.61576 11.198C0.919155 8.84439 1.82014 6.70224 3.34631 4.88187C6.45381 1.13081 10.4623 -0.45052 15.2982 0.110301C17.468 0.367726 19.4446 1.19517 21.2006 2.50988C23.9588 4.57848 25.678 7.30903 26.3032 10.7015C26.3859 11.1612 26.4411 11.6209 26.5054 12.0806V13.9102C26.487 13.9837 26.4687 14.0573 26.4595 14.1308C26.4043 14.5537 26.3675 14.9858 26.2848 15.4087C25.7148 18.314 24.3357 20.7687 22.1108 22.7362C20.2077 24.4278 17.9828 25.4575 15.4637 25.8437C15.1143 25.8988 14.765 25.9448 14.4156 25.9908L14.4064 26ZM10.4255 16.0799C9.82792 16.4752 9.23033 16.7418 8.56838 16.8522C8.14546 16.9257 7.71336 16.9165 7.28125 16.9717C7.18012 16.9809 7.08818 17.0728 6.99624 17.128C7.0514 17.2199 7.09737 17.3211 7.17092 17.4038C7.22608 17.459 7.31802 17.4957 7.39157 17.5325C9.36824 18.5438 11.4184 18.6909 13.5146 18.0014C16.7416 16.9533 18.5804 13.855 18.6631 10.913C18.6631 10.6004 18.7459 10.3797 18.9849 10.1591C19.3067 9.8649 19.5825 9.51553 19.8675 9.18456C19.9227 9.1202 19.9135 9.00988 19.9411 8.91794C19.8491 8.91794 19.748 8.89036 19.6653 8.91794C19.4262 8.99149 19.1872 9.07423 18.9849 9.14778C19.1872 8.79842 19.3895 8.44906 19.5733 8.0905C19.6101 8.02614 19.5733 7.92501 19.5733 7.83307C19.4906 7.84227 19.3895 7.83307 19.3159 7.86985C18.939 8.01695 18.5712 8.17324 18.1943 8.32954C17.9736 8.42147 17.7989 8.36631 17.6151 8.21921C16.6773 7.5021 15.6476 7.38258 14.5903 7.89743C13.5514 8.40309 13.0641 9.29488 13.0733 10.4441C13.0733 10.8486 13.0733 10.8486 12.6688 10.8027C12.6412 10.8027 12.6228 10.8027 12.5953 10.7935C10.7473 10.4993 9.21194 9.66263 7.99836 8.2376C7.80529 8.01695 7.73174 8.02614 7.60303 8.29276C7.09737 9.35924 7.2077 10.3706 7.91562 11.3175C7.96159 11.3819 8.01675 11.437 8.06272 11.5014C7.88804 11.4922 7.74094 11.437 7.59384 11.3727C7.33641 11.2624 7.27205 11.2991 7.28125 11.5749C7.32722 12.5679 7.78691 13.3218 8.61435 13.8642C8.6787 13.901 8.74306 13.9469 8.835 14.0113C8.6879 14.0113 8.59596 14.0113 8.50402 14.0113C8.18224 13.9837 8.13627 14.0389 8.25579 14.3423C8.65112 15.2892 9.35904 15.85 10.4163 16.0891L10.4255 16.0799Z" fill="#00512C"/>
</g>
<defs>
<clipPath id="clip0_588_32648">
<rect width="26.0092" height="26" fill="white" transform="translate(0.486221)"/>
</clipPath>
</defs>
</svg>
